<mxfile host="65bd71144e">
    <diagram id="C5RBs43oDa-KdzZeNtuy" name="Page-1">
        <mxGraphModel dx="990" dy="574" grid="0" gridSize="10" guides="1" tooltips="1" connect="1" arrows="1" fold="1" page="1" pageScale="1" pageWidth="827" pageHeight="1169" background="none" math="0" shadow="0">
            <root>
                <mxCell id="WIyWlLk6GJQsqaUBKTNV-0"/>
                <mxCell id="WIyWlLk6GJQsqaUBKTNV-1" parent="WIyWlLk6GJQsqaUBKTNV-0"/>
                <mxCell id="9OZRC_NavAZGSDA5mFGG-38" value="Node Flow" style="swimlane;strokeWidth=1;fontSize=12;startSize=23;fontFamily=프리텐다드;html=1;fontSource=https%3A%2F%2Fcdn.jsdelivr.net%2Fgh%2FProject-Noonnu%2Fnoonfonts_2107%401.1%2FPretendard-Regular.woff;" parent="WIyWlLk6GJQsqaUBKTNV-1" vertex="1">
                    <mxGeometry x="55" y="63" width="710" height="528" as="geometry"/>
                </mxCell>
            </root>
        </mxGraphModel>
    </diagram>
</mxfile>